HIERARCHY
ROOT hip
{
	OFFSET 0.000000 0.000000 0.000000 
	CHANNELS 6 Xposition Yposition Zposition Xrotation Zrotation Yrotation
	JOINT abdomen
	{
		OFFSET 0.000000 3.402643 0.000000 
		CHANNELS 3 Xrotation Zrotation Yrotation
		JOINT chest
		{
			OFFSET 0.000000 8.438565 -0.680529 
			CHANNELS 3 Xrotation Zrotation Yrotation
			JOINT neck
			{
				OFFSET 0.000000 10.207942 -0.272212 
				CHANNELS 3 Xrotation Zrotation Yrotation
				JOINT head
				{
					OFFSET 0.000000 3.130431 0.000000 
					CHANNELS 3 Xrotation Zrotation Yrotation
					End Site
					{
						OFFSET 0.000000 3.130435 0.000000 
					}
				}
			}
			JOINT lCollar
			{
				OFFSET 3.470700 6.669187 -0.816635 
				CHANNELS 3 Yrotation Zrotation Xrotation
				JOINT lShldr
				{
					OFFSET 3.198488 0.000000 0.000000 
					CHANNELS 3 Zrotation Yrotation Xrotation
					JOINT lForeArm
					{
						OFFSET 10.139888 0.000000 0.000000 
						CHANNELS 3 Yrotation Zrotation Xrotation
						JOINT lHand
						{
							OFFSET 8.370511 0.000000 0.000000 
							CHANNELS 3 Zrotation Yrotation Xrotation
							End Site
							{
								OFFSET 4.083176 0.000000 0.000000 
							}
						}
					}
				}
			}
			JOINT rCollar
			{
				OFFSET -3.470700 6.669187 -0.816635 
				CHANNELS 3 Yrotation Zrotation Xrotation
				JOINT rShldr
				{
					OFFSET -3.198488 0.000000 0.000000 
					CHANNELS 3 Zrotation Yrotation Xrotation
					JOINT rForeArm
					{
						OFFSET -10.139888 0.000000 0.000000 
						CHANNELS 3 Yrotation Zrotation Xrotation
						JOINT rHand
						{
							OFFSET -8.370511 0.000000 0.000000 
							CHANNELS 3 Zrotation Yrotation Xrotation
							End Site
							{
								OFFSET -4.083176 0.000000 0.000000 
							}
						}
					}
				}
			}
		}
	}
	JOINT lThigh
	{
		OFFSET 5.308129 -1.633274 1.361059 
		CHANNELS 3 Xrotation Zrotation Yrotation
		JOINT lShin
		{
			OFFSET -2.041588 -20.007561 0.000000 
			CHANNELS 3 Xrotation Zrotation Yrotation
			JOINT lFoot
			{
				OFFSET 0.000000 -19.190928 -1.224953 
				CHANNELS 3 Xrotation Yrotation Zrotation
				End Site
				{
					OFFSET 0.000000 -2.449906 4.627600 
				}
			}
		}
	}
	JOINT rThigh
	{
		OFFSET -5.308129 -1.633274 1.361059 
		CHANNELS 3 Xrotation Zrotation Yrotation
		JOINT rShin
		{
			OFFSET 2.041588 -20.007561 0.000000 
			CHANNELS 3 Xrotation Zrotation Yrotation
			JOINT rFoot
			{
				OFFSET 0.000000 -19.190928 -1.224953 
				CHANNELS 3 Xrotation Yrotation Zrotation
				End Site
				{
					OFFSET 0.000000 -2.449906 4.627600 
				}
			}
		}
	}
}
MOTION
Frames: 16
Frame Time: 0.016667
-0.712620 45.289852 0.347643 6.417190 -3.338370 3.178930 -21.740101 2.097190 -1.971060 17.213600 2.495750 -0.663178 30.846901 30.655701 -13.885900 -8.603520 0.000000 0.000000 2.000000 -2.000000 0.000000 -89.900902 -1.089330 -147.839996 78.389198 -0.242366 0.133967 3.973080 3.824140 164.636993 -2.000000 2.000000 0.000000 80.791901 10.822400 -129.591003 -76.318901 0.247185 0.132850 5.846400 3.236930 -143.638000 -20.135048 5.111517 0.262920 20.251431 2.839953 1.588929 -0.522108 5.502879 0.840722 -7.772238 6.253745 1.902713 17.187309 -2.381577 -1.531184 -13.101054 -13.892296 -4.499047 
-0.726555 45.275700 0.393296 6.417250 -3.348080 3.031360 -21.798700 2.115320 -2.033800 17.360399 2.418110 -0.681747 30.864201 30.417999 -13.801000 -8.603520 0.000000 0.000000 2.000000 -2.000000 0.000000 -90.047302 -0.796148 -147.733002 77.871597 -0.243574 0.133713 4.073690 3.727180 166.117004 -2.000000 2.000000 0.000000 80.694397 10.031700 -129.835999 -76.397003 0.247004 0.132894 5.846400 3.236930 -143.638000 -19.765575 5.120399 -0.381008 20.189507 2.857698 1.583000 -0.921686 5.334927 0.900564 -7.772758 6.265044 1.785866 17.265568 -2.385766 -1.530343 -13.179269 -13.662175 -4.455297 
-0.738777 45.258945 0.450645 6.339060 -3.358290 2.712580 -21.800100 2.162080 -1.936840 17.526800 2.340480 -0.621792 30.844801 30.175400 -13.872900 -8.603520 0.000000 0.000000 2.000000 -2.000000 0.000000 -90.125099 -0.571165 -147.548004 77.353996 -0.244780 0.133449 4.184240 3.601760 167.899994 -2.000000 2.000000 0.000000 80.685402 9.290290 -130.315994 -76.426300 0.246936 0.132910 5.834410 3.262850 -143.880997 -19.250597 5.162216 -0.965468 20.055563 2.891162 1.560818 -1.255581 5.449564 0.930549 -7.646330 6.329611 2.054626 17.296772 -2.376354 -1.538579 -13.246582 -13.598211 -4.442417 
-0.738606 45.238831 0.521802 6.221730 -3.368760 2.288700 -21.812099 2.246160 -1.823750 17.663601 2.331010 -0.547357 30.730301 29.964199 -13.960600 -8.603520 0.000000 0.000000 2.000000 -2.000000 0.000000 -90.251999 -0.307415 -147.509003 76.895103 -0.245848 0.133205 4.296390 3.480850 169.720993 -2.000000 2.000000 0.000000 80.676399 8.558690 -130.845001 -76.397003 0.247004 0.132894 5.797940 3.340450 -144.602005 -18.554068 5.202205 -1.563326 19.575073 2.926404 1.524024 -1.375886 5.823536 0.978756 -7.563721 6.417252 2.404821 17.518867 -2.413208 -1.549049 -13.360781 -13.560816 -4.395971 
-0.721653 45.217144 0.604173 6.104590 -3.408340 1.861740 -21.833799 2.346970 -1.749430 17.800400 2.350800 -0.484140 30.538300 29.750999 -14.002000 -8.603520 0.000000 0.000000 2.000000 -2.000000 0.000000 -90.398697 0.014594 -147.636993 76.602097 -0.246529 0.133044 4.371480 3.388250 170.994003 -2.000000 2.000000 0.000000 80.628403 7.846680 -131.403000 -76.357903 0.247095 0.132872 5.718740 3.473990 -145.889008 -17.840120 5.187422 -2.264458 18.851374 2.984843 1.444685 -1.105866 6.564821 0.971869 -7.400903 6.485176 2.669178 17.624510 -2.433711 -1.550114 -13.468013 -13.432641 -4.354550 
-0.697573 45.197544 0.689390 5.997410 -3.477010 1.470370 -21.875200 2.458660 -1.702030 17.937201 2.380330 -0.440805 30.271200 29.560400 -14.014100 -8.603520 0.000000 0.000000 2.000000 -2.000000 0.000000 -90.506401 0.336445 -147.841995 76.533699 -0.246687 0.133007 4.399780 3.344820 171.513000 -2.000000 2.000000 0.000000 80.658699 7.203110 -132.009003 -76.240799 0.247366 0.132806 5.600740 3.652390 -147.654007 -17.194502 5.199646 -2.810750 18.085220 3.048643 1.355710 -0.341998 7.457963 0.881957 -7.216765 6.569350 2.887591 17.623539 -2.435040 -1.530808 -13.484299 -13.279893 -4.296734 
-0.674263 45.183659 0.767025 5.909850 -3.555270 1.155160 -21.916000 2.544120 -1.696420 18.025101 2.439030 -0.420207 30.013300 29.410500 -13.987800 -8.603520 0.000000 0.000000 2.000000 -2.000000 0.000000 -90.516403 0.648490 -148.067993 76.650902 -0.246415 0.133071 4.396010 3.354120 171.473999 -2.000000 2.000000 0.000000 80.806198 6.686630 -132.694000 -75.986900 0.247955 0.132660 5.479920 3.856480 -149.623993 -16.707653 5.223430 -3.031413 17.492296 3.087534 1.319668 0.447992 8.228936 0.763762 -7.028979 6.663874 3.057741 17.648336 -2.467629 -1.525318 -13.567570 -13.191607 -4.251770 
-0.649339 45.178211 0.833343 5.821850 -3.565550 0.993601 -21.965300 2.578170 -1.744450 18.093300 2.507450 -0.429996 29.775299 29.291000 -13.960600 -8.603520 0.000000 0.000000 2.000000 -2.000000 0.000000 -90.409203 0.882548 -148.223999 76.875504 -0.245894 0.133194 4.393390 3.362080 171.287994 -2.000000 2.000000 0.000000 81.100502 6.316790 -133.466003 -75.566902 0.248926 0.132414 5.340380 4.042860 -151.567001 -16.357304 5.182812 -3.086657 17.199617 3.107802 1.286706 0.853787 8.745884 0.686055 -6.845934 6.651618 3.149021 17.608997 -2.469977 -1.536091 -13.590876 -13.118656 -4.248434 
-0.623891 45.179897 0.888987 5.772210 -3.449260 1.018190 -22.013000 2.533880 -1.834620 18.151800 2.605130 -0.480350 29.501200 29.253099 -13.927700 -8.603520 0.000000 0.000000 2.000000 -2.000000 0.000000 -90.233597 1.038580 -148.332001 77.090401 -0.245394 0.133309 4.388210 3.362800 171.365997 -2.000000 2.000000 0.000000 81.453499 6.025230 -134.315994 -75.068901 0.250075 0.132113 5.217360 4.214200 -153.352997 -16.105236 5.019187 -3.130176 16.933634 3.094734 1.278409 1.050300 8.936972 0.658398 -6.791933 6.526484 3.137016 17.725155 -2.488511 -1.546448 -13.725669 -13.134057 -4.275404 
-0.611910 45.182487 0.927447 5.761220 -3.245280 1.215690 -22.089001 2.459400 -1.976980 18.161200 2.790530 -0.556003 29.200800 29.277800 -13.904200 -8.603520 0.000000 0.000000 2.000000 -2.000000 0.000000 -89.989502 1.145900 -148.380997 77.295502 -0.244917 0.133418 4.422040 3.328410 171.845993 -2.000000 2.000000 0.000000 81.835800 5.753320 -135.225006 -74.570801 0.251222 0.131801 5.093520 4.370310 -154.983994 -15.902908 4.814854 -3.032011 16.590096 3.066395 1.249012 1.191782 8.704403 0.654043 -6.827338 6.310872 3.044202 17.987885 -2.510394 -1.534947 -13.920099 -13.265274 -4.328327 
-0.611439 45.179379 0.947910 5.730910 -3.070540 1.459490 -22.175100 2.400650 -2.105580 18.102100 2.995300 -0.635975 28.917200 29.297701 -13.910900 -8.603520 0.000000 0.000000 2.000000 -2.000000 0.000000 -89.657303 1.175500 -148.235001 77.490799 -0.244462 0.133520 -175.539993 176.723999 -7.459350 -2.000000 2.000000 0.000000 82.257401 5.471820 -136.220001 -74.141197 0.252210 0.131525 4.974460 4.513850 -156.537003 -15.814069 4.666481 -2.808575 16.382095 3.061373 1.241230 1.200806 8.154155 0.659629 -6.881158 6.156597 2.998870 18.243271 -2.525378 -1.562423 -14.108159 -13.488288 -4.451004 
-0.601124 45.170944 0.968947 5.632810 -3.012750 1.597420 -22.213600 2.380560 -2.131210 18.033501 3.082950 -0.653170 28.676201 29.283600 -13.968300 -8.603520 0.000000 0.000000 2.000000 -2.000000 0.000000 -89.227097 1.068770 -147.893005 77.695801 -0.243984 0.133625 -175.496994 176.785995 -6.695570 -2.000000 2.000000 0.000000 82.737602 5.180730 -137.304993 -73.887199 0.252792 0.131358 4.843500 4.658450 -158.160004 -15.713303 4.630825 -2.594661 16.373014 3.056706 1.240676 1.097722 7.716161 0.670878 -6.903750 6.118907 3.006051 18.515421 -2.553441 -1.561574 -14.238166 -13.642426 -4.507356 
-0.569523 45.164055 0.996559 5.515660 -3.052240 1.638900 -22.213699 2.378370 -2.109230 18.023800 3.043900 -0.642209 28.509600 29.210300 -13.989900 -8.603520 0.000000 0.000000 2.000000 -2.000000 0.000000 -88.777397 0.854731 -147.492004 77.930199 -0.243437 0.133743 -175.451996 176.848999 -5.844580 -2.000000 2.000000 0.000000 83.217796 4.918880 -138.330994 -73.809097 0.252971 0.131306 4.716320 4.790730 -159.733994 -15.604156 4.655909 -2.482410 16.461182 3.065578 1.250536 0.937962 7.537243 0.687944 -6.719636 6.126717 3.038188 18.515947 -2.552466 -1.571581 -14.298072 -13.714910 -4.523965 
-0.531422 45.161461 1.011650 5.447500 -3.110910 1.676040 -22.243601 2.397120 -2.086900 17.994499 3.004810 -0.632257 28.431101 29.026400 -13.955400 -8.603520 0.000000 0.000000 2.000000 -2.000000 0.000000 -88.357002 0.572333 -147.091003 78.184097 -0.242845 0.133868 -175.393997 176.921997 -4.905300 -2.000000 2.000000 0.000000 83.629303 4.725180 -139.229004 -73.887199 0.252792 0.131358 4.600180 4.904930 -161.072998 -15.585696 4.692078 -2.397834 16.580864 3.067051 1.268676 0.836085 7.449881 0.683889 -6.682563 6.164243 3.033418 18.550674 -2.581711 -1.555523 -14.308420 -13.761601 -4.539442 
-0.498736 45.161720 1.002824 5.447610 -3.130360 1.732780 -22.302700 2.417460 -2.087980 17.896700 3.033840 -0.628966 28.407101 28.764299 -13.855700 -8.603520 0.000000 0.000000 2.000000 -2.000000 0.000000 -88.014702 0.182470 -146.709000 78.369698 -0.242411 0.133958 -175.348999 176.994995 -3.995280 -2.000000 2.000000 0.000000 83.952698 4.619080 -139.962006 -74.033699 0.252456 0.131455 4.509490 5.000920 -162.149994 -15.637033 4.682109 -2.259375 16.629723 3.066828 1.248553 0.796829 7.351757 0.681173 -6.665789 6.167423 3.045594 18.520847 -2.580682 -1.546137 -14.292243 -13.850634 -4.562120 
-0.464152 45.162628 0.986867 5.476790 -3.101040 1.743740 -22.352200 2.439230 -2.057470 17.808599 3.062890 -0.615487 28.444901 28.417101 -13.652200 -8.603520 0.000000 0.000000 2.000000 -2.000000 0.000000 -87.701698 -0.334369 -146.337006 78.477097 -0.242160 0.134009 -175.307007 177.050995 -3.261830 -2.000000 2.000000 0.000000 84.217300 4.639750 -140.576996 -74.180199 0.252120 0.131550 4.429970 5.071160 -163.001007 -15.659346 4.608509 -2.155178 16.610083 3.067922 1.258715 0.778319 7.306539 0.696927 -6.700131 6.091549 3.089268 18.591612 -2.576263 -1.573495 -14.325565 -13.905272 -4.573435 
